<svg width="61" height="61" xmlns="http://www.w3.org/2000/svg" xmlns:xlink="http://www.w3.org/1999/xlink" overflow="hidden"><defs><clipPath id="clip0"><rect x="729" y="462" width="61" height="61"/></clipPath><clipPath id="clip1"><rect x="730" y="462" width="59" height="61"/></clipPath><clipPath id="clip2"><rect x="730" y="462" width="59" height="61"/></clipPath><clipPath id="clip3"><rect x="730" y="462" width="59" height="61"/></clipPath></defs><g clip-path="url(#clip0)" transform="translate(-729 -462)"><g clip-path="url(#clip1)"><g clip-path="url(#clip2)"><g clip-path="url(#clip3)"><path d="M31.8927 0.288575C31.3279 0.310989 30.8172 0.669233 30.602 1.24302 29.4066 4.49449 29.5981 7.98485 31.0326 11.0929 32.467 14.2009 35.0965 16.5917 38.3002 17.7871 38.4436 17.8349 38.6349 17.8833 38.7783 17.8833 39.3521 17.8833 39.9263 17.5007 40.1175 16.9269 41.3129 13.6755 41.1215 10.1851 39.687 7.07709 38.2525 3.92126 35.6707 1.57829 32.467 0.382899 32.2758 0.311176 32.081 0.281104 31.8927 0.288575ZM10.9976 0.453875C10.7466 0.453875 10.4955 0.526159 10.2804 0.669606 4.82938 3.87326 1.43447 9.80184 1.43447 16.1135L1.43447 33.9491C1.43447 34.762 2.05607 35.3836 2.86894 35.3836L9.56314 35.3836 9.56314 39.9261C7.60269 40.5477 6.21604 42.3647 6.21604 44.4686L6.21604 55.9444C6.21604 58.5742 8.36774 60.7259 10.9976 60.7259 13.6275 60.7259 15.7792 58.5742 15.7792 55.9444L15.7792 44.4686C15.7792 42.3169 14.3925 40.4999 12.4321 39.9261L12.4321 35.3836 19.1263 35.3836C19.9391 35.3836 20.5607 34.762 20.5607 33.9491L20.5607 16.1135C20.5607 9.80184 17.1658 3.87326 11.7148 0.669606 11.4997 0.526159 11.2486 0.453875 10.9976 0.453875ZM10.9976 3.58618C15.1576 6.35949 17.6918 11.0929 17.6918 16.1135L17.6918 32.5147 12.4321 32.5147 12.4321 29.1676C12.4321 28.3547 11.8105 27.7331 10.9976 27.7331 10.1847 27.7331 9.56314 28.3547 9.56314 29.1676L9.56314 32.5147 4.30341 32.5147 4.30341 16.1135C4.30341 11.0929 6.83764 6.35949 10.9976 3.58618ZM55.978 4.76476C53.3533 4.81407 50.8157 5.6303 48.6282 7.17235 45.7114 9.22843 43.751 12.2886 43.1294 15.7792 43.0337 16.2573 43.1299 16.7833 43.4646 17.2136 43.7515 17.644 44.1819 17.8829 44.66 17.9785 45.4251 18.122 46.2381 18.17 47.0032 18.17 49.7287 18.17 52.3585 17.3573 54.6537 15.7315 57.5705 13.6755 59.5309 10.6153 60.1525 7.12472 60.2481 6.64657 60.1041 6.16822 59.8172 5.73788 59.5303 5.30754 59.1 5.06865 58.6218 4.97302 57.7373 4.81762 56.8528 4.74832 55.978 4.76476ZM56.1647 7.62062C56.4719 7.61699 56.7813 7.6266 57.0921 7.65051 55.7533 12.4799 51.1626 15.6835 46.1898 15.301 47.4449 10.7735 51.5581 7.67508 56.1647 7.62062ZM29.1816 17.2622C27.4115 17.2798 25.638 17.892 24.1945 19.1263 23.9077 19.3175 23.7166 19.6524 23.6688 20.035 23.6209 20.4175 23.764 20.7996 24.0031 21.0865 25.581 22.9513 27.7813 23.9078 30.0286 23.9078 31.7978 23.9078 33.6146 23.2859 35.0969 22.0905 35.3838 21.8514 35.5749 21.5167 35.6227 21.1342 35.6705 20.7516 35.5274 20.3695 35.2883 20.0826 33.7284 18.1998 31.4574 17.2396 29.1816 17.2622ZM39.7823 19.2215C38.9694 19.2215 38.3486 19.8917 38.3964 20.7046 38.4442 22.6172 38.2525 24.4816 37.7744 26.2986L24.8642 26.2986C24.0513 26.2986 23.4297 26.9202 23.4297 27.7331 23.4297 28.546 24.0513 29.1676 24.8642 29.1676L38.9222 29.1676 55.9444 29.1676 55.9444 32.5147 52.5973 32.5147 24.8642 32.5147 24.8165 32.5147 24.6727 32.5147C23.9077 32.6103 23.3341 33.3279 23.4297 34.093L26.2986 59.4353C26.3943 60.1525 27.0159 60.7259 27.7331 60.7259L49.7283 60.7259C50.4455 60.7259 51.0672 60.2003 51.1628 59.4353L53.8879 35.3836 57.3788 35.3836C58.1917 35.3836 58.8133 34.762 58.8133 33.9491L58.8133 27.7331C58.8133 26.9202 58.1917 26.2986 57.3788 26.2986L40.7386 26.2986C41.1211 24.4338 41.3131 22.521 41.2653 20.6084 41.2653 19.7955 40.5473 19.1737 39.7823 19.2215ZM26.4901 35.3836 51.019 35.3836 48.4377 57.857 29.0237 57.857 26.4901 35.3836ZM10.9976 42.556C12.0496 42.556 12.9102 43.4166 12.9102 44.4686L12.9102 55.9444C12.9102 56.9963 12.0496 57.857 10.9976 57.857 9.94566 57.857 9.08498 56.9963 9.08498 55.9444L9.08498 44.4686C9.08498 43.4166 9.94566 42.556 10.9976 42.556Z" fill="#FFFFFF" transform="matrix(1 0 0 1.00928 728.659 461.71)"/></g></g></g></g></svg>