<svg width="62" height="53" xmlns="http://www.w3.org/2000/svg" xmlns:xlink="http://www.w3.org/1999/xlink" overflow="hidden"><defs><clipPath id="clip0"><rect x="728" y="285" width="62" height="53"/></clipPath><clipPath id="clip1"><rect x="728" y="285" width="61" height="52"/></clipPath><clipPath id="clip2"><rect x="728" y="285" width="61" height="52"/></clipPath><clipPath id="clip3"><rect x="728" y="285" width="61" height="52"/></clipPath></defs><g clip-path="url(#clip0)" transform="translate(-728 -285)"><g clip-path="url(#clip1)"><g clip-path="url(#clip2)"><g clip-path="url(#clip3)"><path d="M1.38538 26.6181C1.38538 26.6181 24.833 25.0131 24.9934 50.2268-0.220924 50.067 1.38538 26.6181 1.38538 26.6181Z" fill="#FFFFFF" transform="matrix(1.00732 0 0 1 728.596 285.193)"/><path d="M26.365 51.599 24.9855 51.5891C16.8521 51.5379 10.5268 49.1392 6.18325 44.4591-0.616747 37.1317-0.00263005 26.9548 0.0263005 26.5261L0.107832 25.3432 1.29267 25.259C1.29267 25.259 1.62603 25.2354 2.21648 25.2354 6.22073 25.2354 26.2052 26.4406 26.3571 50.2176L26.365 51.599ZM2.73854 27.9667C2.81481 30.7486 3.50586 37.5795 8.19787 42.6239 11.7609 46.452 16.9369 48.5363 23.5962 48.8296 22.7776 30.1384 8.117 28.0824 2.73854 27.9667Z" fill="#FFFFFF" transform="matrix(1.00732 0 0 1 728.596 285.193)"/><path d="M29.3152 1.80816C29.3152 1.80816 47.0306 17.2518 29.3152 35.1947 11.6005 17.2518 29.3152 1.80816 29.3152 1.80816Z" fill="#FFFFFF" transform="matrix(1.00732 0 0 1 728.596 285.193)"/><path d="M29.3152 37.1331 28.346 36.1514C22.6309 30.364 19.8543 24.1945 20.0929 17.8147 20.4671 7.82506 28.0949 1.0632 28.4197 0.780468L29.3152 0 30.2108 0.780468C30.5356 1.0632 38.1634 7.82506 38.5375 17.8147 38.7755 24.1945 35.9995 30.364 30.2844 36.1514L29.3152 37.1331ZM29.3152 3.72087C27.3992 5.74469 23.0629 11.0613 22.8157 17.9409 22.6277 23.1681 24.8132 28.3013 29.3152 33.2176 33.8172 28.3013 36.0021 23.1681 35.8147 17.9409 35.5675 11.0613 31.2319 5.74469 29.3152 3.72087Z" fill="#FFFFFF" transform="matrix(1.00732 0 0 1 728.596 285.193)"/><path d="M57.9046 26.6181C57.9046 26.6181 34.4596 25.0131 34.2972 50.2268 59.5122 50.067 57.9046 26.6181 57.9046 26.6181Z" fill="#FFFFFF" transform="matrix(1.00732 0 0 1 728.596 285.193)"/><path d="M32.925 51.599 32.9342 50.2176C33.0867 26.4406 53.0699 25.2354 57.0741 25.2354 57.6639 25.2354 57.9979 25.259 57.9979 25.259L59.1795 25.3432 59.2649 26.5261C59.2939 26.9548 59.908 37.1304 53.1073 44.4591 48.7651 49.1392 42.4392 51.5379 34.3044 51.5891L32.925 51.599ZM56.556 27.9667C51.1775 28.0824 36.5137 30.1351 35.6938 48.8289 42.3649 48.5363 47.5454 46.4454 51.1098 42.6042 55.8064 37.544 56.485 30.7401 56.556 27.9667Z" fill="#FFFFFF" transform="matrix(1.00732 0 0 1 728.596 285.193)"/></g></g></g></g></svg>