<svg width="59" height="61" xmlns="http://www.w3.org/2000/svg" xmlns:xlink="http://www.w3.org/1999/xlink" overflow="hidden"><defs><clipPath id="clip0"><rect x="729" y="366" width="59" height="61"/></clipPath><clipPath id="clip1"><rect x="730" y="367" width="57" height="60"/></clipPath><clipPath id="clip2"><rect x="730" y="367" width="57" height="60"/></clipPath><clipPath id="clip3"><rect x="730" y="367" width="57" height="60"/></clipPath></defs><g clip-path="url(#clip0)" transform="translate(-729 -366)"><g clip-path="url(#clip1)"><g clip-path="url(#clip2)"><g clip-path="url(#clip3)"><path d="M36.7177 5.44849 8.26148 15.8811 8.26148 53.8628 36.7177 65.2439 65.1739 53.8628 65.1739 15.8811 64.5715 15.6606 36.7177 5.44849ZM36.7177 7.40271 63.338 17.1648 63.338 52.6186 36.7177 63.2681 10.0974 52.6186 10.0974 17.1648 36.7177 7.40271ZM36.7177 8.26148C36.2107 8.26148 35.7998 8.67246 35.7998 9.17943 35.7998 9.68639 36.2107 10.0974 36.7177 10.0974 37.2247 10.0974 37.6356 9.68639 37.6356 9.17943 37.6356 8.67246 37.2247 8.26148 36.7177 8.26148ZM36.7177 11.9333C36.2107 11.9333 35.7998 12.3442 35.7998 12.8512 35.7998 13.3582 36.2107 13.7691 36.7177 13.7691 37.2247 13.7691 37.6356 13.3582 37.6356 12.8512 37.6356 12.3442 37.2247 11.9333 36.7177 11.9333ZM36.7177 15.605C36.2107 15.605 35.7998 16.016 35.7998 16.523 35.7998 17.0299 36.2107 17.4409 36.7177 17.4409 37.2247 17.4409 37.6356 17.0299 37.6356 16.523 37.6356 16.016 37.2247 15.605 36.7177 15.605ZM36.7177 19.2768C36.2107 19.2768 35.7998 19.6878 35.7998 20.1947 35.7998 20.7017 36.2107 21.1127 36.7177 21.1127 37.2247 21.1127 37.6356 20.7017 37.6356 20.1947 37.6356 19.6878 37.2247 19.2768 36.7177 19.2768ZM30.2921 20.8993 15.605 26.6634 15.605 39.165 16.8726 38.6414 30.2921 33.1159 30.2921 20.8993ZM44.9792 22.5452 44.9792 46.5193 46.8599 47.2705 46.946 47.3045 50.3542 48.6689 50.3954 48.685 50.4402 48.703 53.8485 50.0655 53.9363 50.1014 55.9945 50.9243 55.9945 49.5689 55.9945 26.6508 44.9792 22.5452ZM36.7177 22.9486C36.2107 22.9486 35.7998 23.3595 35.7998 23.8665 35.7998 24.3735 36.2107 24.7845 36.7177 24.7845 37.2247 24.7845 37.6356 24.3735 37.6356 23.8665 37.6356 23.3595 37.2247 22.9486 36.7177 22.9486ZM28.4562 23.5922 28.4562 31.8878 17.4409 36.4237 17.4409 27.9148 28.4562 23.5922ZM46.8151 25.1896 54.1586 27.9255 54.1586 48.2135 51.1233 46.9979 51.1215 46.9979 51.0355 46.9639 47.5484 45.5672 47.5412 45.5655 46.8151 45.275 46.8151 25.1896ZM36.7177 26.6203C36.2107 26.6203 35.7998 27.0313 35.7998 27.5383 35.7998 28.0452 36.2107 28.4562 36.7177 28.4562 37.2247 28.4562 37.6356 28.0452 37.6356 27.5383 37.6356 27.0313 37.2247 26.6203 36.7177 26.6203ZM36.7177 30.2921C36.2107 30.2921 35.7998 30.7031 35.7998 31.2101 35.7998 31.717 36.2107 32.128 36.7177 32.128 37.2247 32.128 37.6356 31.717 37.6356 31.2101 37.6356 30.7031 37.2247 30.2921 36.7177 30.2921ZM36.7177 33.9639C36.2107 33.9639 35.7998 34.3749 35.7998 34.8818 35.7998 35.3888 36.2107 35.7998 36.7177 35.7998 37.2247 35.7998 37.6356 35.3888 37.6356 34.8818 37.6356 34.3749 37.2247 33.9639 36.7177 33.9639ZM36.7177 37.6356C36.2107 37.6356 35.7998 38.0466 35.7998 38.5536 35.7998 39.0606 36.2107 39.4715 36.7177 39.4715 37.2247 39.4715 37.6356 39.0606 37.6356 38.5536 37.6356 38.0466 37.2247 37.6356 36.7177 37.6356ZM36.6944 41.3074 36.3771 41.3738 36.291 41.4078 36.2623 41.4401 36.239 41.4419 36.187 41.5244 35.746 42.0228 35.9109 42.8278 36.1745 42.9515 36.3771 43.077 36.4613 43.111 36.5079 43.1074 36.6567 43.1774 36.9741 43.111 37.0583 43.077 37.0727 43.0608 37.2825 43.0429 37.7163 42.3455 37.4187 41.5781 37.1444 41.4078 37.0583 41.3738 36.8683 41.3899 36.6944 41.3074ZM33.2001 42.7058 32.8828 42.7704 32.7967 42.8045 32.2517 43.4194 32.4166 44.2262 33.1625 44.574 33.4798 44.5095 33.5641 44.4754 34.1109 43.8604 33.9442 43.0555 33.2001 42.7058ZM40.5526 42.7704 39.7333 42.8403 39.2976 43.5377 39.597 44.3051 39.8713 44.4754 39.9556 44.5095 40.7767 44.4413 41.2106 43.7421 40.913 42.9766 40.6387 42.8045 40.5526 42.7704ZM29.7041 44.1025 29.3885 44.1688 29.3025 44.2029 28.7574 44.8178 28.9224 45.6228 29.6682 45.9724 29.9837 45.9079 30.0698 45.8738 30.6166 45.2571 30.4499 44.4521 29.7041 44.1025ZM44.0469 44.1688 43.2276 44.2369 42.7919 44.9362 43.0913 45.7017 43.3656 45.8738 43.4517 45.9079 44.271 45.838 44.7049 45.1405 44.4073 44.3732 44.133 44.2029 44.0469 44.1688ZM26.2098 45.5009 25.8942 45.5655 25.8082 45.6013 25.2631 46.2163 25.4281 47.0213 26.1739 47.3709 26.4895 47.3045 26.5755 47.2705 27.1205 46.6555 26.9556 45.8505 26.2098 45.5009ZM22.7155 46.8993 22.4 46.9639 22.3139 46.9979 21.7689 47.6129 21.9338 48.4197 22.6796 48.7675 22.9952 48.703 23.0812 48.6689 23.6263 48.0539 23.4613 47.2472 22.7155 46.8993ZM19.2212 48.296 18.9057 48.3623 18.8196 48.3964 18.2746 49.0113 18.4395 49.8163 19.1854 50.1659 19.5009 50.1014 19.587 50.0655 20.132 49.4506 19.967 48.6456 19.2212 48.296ZM15.7269 49.6944 15.4096 49.7589 15.3253 49.793 14.7785 50.4098 14.9453 51.2147 15.6911 51.5644 16.0066 51.498 16.0927 51.464 16.6377 50.849 16.4728 50.044 15.7269 49.6944ZM58.0258 49.7589 57.2047 49.8289 56.7708 50.5263 57.0684 51.2936 57.3427 51.464 57.4288 51.498 58.2481 51.4299 58.6838 50.7307 58.3844 49.9651 58.1101 49.793 58.0258 49.7589ZM12.2327 51.0928 11.9153 51.1574 11.8311 51.1914 11.2842 51.8064 11.451 52.6114 12.195 52.961 12.5123 52.8964 12.5984 52.8624 13.1434 52.2474 12.9785 51.4406 12.2327 51.0928ZM61.5201 51.1574 60.699 51.2255 60.2651 51.9247 60.5627 52.6903 60.837 52.8624 60.9231 52.8964 61.7424 52.8265 62.1781 52.1291 61.8787 51.3636 61.6044 51.1914 61.5201 51.1574Z" fill="#FFFFFF" transform="matrix(1 0 0 1.00405 721.782 361.562)"/></g></g></g></g></svg>