<svg width="34" height="29" xmlns="http://www.w3.org/2000/svg" xmlns:xlink="http://www.w3.org/1999/xlink" overflow="hidden"><defs><clipPath id="clip0"><rect x="1299" y="23" width="34" height="29"/></clipPath><clipPath id="clip1"><rect x="1299" y="24" width="34" height="28"/></clipPath><clipPath id="clip2"><rect x="1299" y="24" width="34" height="28"/></clipPath><clipPath id="clip3"><rect x="1299" y="24" width="34" height="28"/></clipPath></defs><g clip-path="url(#clip0)" transform="translate(-1299 -23)"><g clip-path="url(#clip1)"><g clip-path="url(#clip2)"><g clip-path="url(#clip3)"><path d="M0 15.4 33.6 15.4 33.6 18.2 0 18.2Z" fill="#FFFFFF" transform="matrix(1.0119 0 0 1 1299 21.2)"/><path d="M0 2.8 33.6 2.8 33.6 5.6 0 5.6Z" fill="#FFFFFF" transform="matrix(1.0119 0 0 1 1299 21.2)"/><path d="M0 28 33.6 28 33.6 30.8 0 30.8Z" fill="#FFFFFF" transform="matrix(1.0119 0 0 1 1299 21.2)"/></g></g></g></g></svg>